<?xml version="1.0" standalone="no"?>
<!DOCTYPE svg PUBLIC "-//W3C//DTD SVG 20010904//EN"
 "http://www.w3.org/TR/2001/REC-SVG-20010904/DTD/svg10.dtd">
<svg version="1.0" xmlns="http://www.w3.org/2000/svg"
 width="151.000000pt" height="151.000000pt" viewBox="0 0 151.000000 151.000000"
 preserveAspectRatio="xMidYMid meet">
<metadata>
Created by potrace 1.11, written by Peter Selinger 2001-2013
</metadata>
<g transform="translate(0.000000,151.000000) scale(0.100000,-0.100000)"
fill="#000000" stroke="none">
<path d="M657 1354 c-1 -1 -24 -5 -52 -8 -173 -23 -331 -93 -430 -191 -121
-121 -180 -309 -154 -485 14 -94 19 -112 52 -177 57 -113 151 -204 272 -266
52 -26 187 -64 255 -72 80 -9 240 -12 240 -4 0 3 -11 16 -25 29 -24 22 -25 29
-25 142 l0 118 -37 1 c-21 0 -147 0 -280 0 -144 0 -244 4 -244 10 -11 78 -2
138 25 165 6 6 25 28 41 49 17 21 37 46 45 54 8 9 31 37 50 61 42 53 65 81
106 129 17 20 57 70 90 111 32 41 69 86 81 100 42 49 58 68 87 105 17 20 45
56 62 78 18 23 31 44 28 46 -4 5 -182 9 -187 5z"/>
<path d="M959 1319 c-4 -64 -3 -220 2 -246 4 -18 4 -33 0 -33 -6 0 -6 -57 0
-86 1 -5 1 -11 0 -14 -7 -19 -4 -190 2 -190 5 0 5 -5 2 -10 -9 -14 -10 -93 -3
-106 4 -5 3 -16 -2 -24 -5 -8 -5 -21 1 -31 8 -16 30 -18 245 -18 234 0 269 3
258 20 -3 5 -2 15 2 21 11 17 14 39 18 136 8 198 -85 379 -250 489 -98 65
-273 123 -275 92z"/>
<path d="M769 1132 c-8 -9 -61 -75 -119 -147 -58 -71 -109 -135 -115 -141 -5
-6 -23 -28 -40 -49 -16 -21 -35 -43 -40 -49 -6 -6 -26 -31 -45 -56 -19 -25
-45 -56 -58 -70 -56 -60 -65 -58 192 -59 145 -1 237 2 241 8 6 10 8 571 2 577
-2 2 -10 -4 -18 -14z"/>
<path d="M1018 442 c-52 -3 -58 -5 -59 -25 -1 -12 -2 -33 -2 -47 -1 -14 1 -35
5 -48 5 -13 5 -21 0 -19 -8 6 -6 -38 3 -70 6 -17 15 -23 36 -23 19 0 29 -5 29
-15 0 -8 2 -15 4 -15 23 0 199 87 226 112 10 10 21 18 24 18 7 0 75 71 97 101
l20 29 -23 1 c-140 3 -314 3 -360 1z"/>
</g>
</svg>
